<?xml version="1.0" standalone="no"?><!DOCTYPE svg PUBLIC "-//W3C//DTD SVG 1.1//EN" "http://www.w3.org/Graphics/SVG/1.1/DTD/svg11.dtd"><svg t="1515751309334" class="icon" style="" viewBox="0 0 1024 1024" version="1.1" xmlns="http://www.w3.org/2000/svg" p-id="3352" xmlns:xlink="http://www.w3.org/1999/xlink" width="128" height="128"><defs><style type="text/css"></style></defs><path d="M888.512 383.744h-58.496V307.072C830.016 137.472 681.92 0 512.32 0c-169.6 0-323.328 137.472-323.328 307.072v76.672H62.016V1024h896V383.744h-69.504zM255.424 305.088c0-141.696 111.36-241.536 253.056-241.536s256.512 99.904 256.512 241.536v78.656H255.424V305.088z m287.232 412.288v152.896H476.672v-152.896c-26.688-16.256-55.36-46.016-55.36-80.512 0-51.52 40.128-93.248 89.536-93.248s89.6 41.728 89.6 93.248c0.064 34.496-31.104 64.256-57.792 80.512" p-id="3353" fill="#515151"></path></svg>